<svg xmlns="http://www.w3.org/2000/svg" width="15.83" height="20" viewBox="0 0 15.83 20"><defs><style>.a{opacity:0.75;}.b{fill:#00000;}</style></defs><title>ALE Login&amp;amp;Landing</title><g class="a"><path class="b" d="M2.13,20A2.14,2.14,0,0,1,0,17.87V9.68A2.14,2.14,0,0,1,2.13,7.54H3.85V4A4,4,0,0,1,7.91,0,4,4,0,0,1,12,4V5.23H10.91V4a3,3,0,0,0-6,0V7.54h8.78a2.14,2.14,0,0,1,2.14,2.14v8.19A2.14,2.14,0,0,1,13.69,20Zm0-11.4A1.08,1.08,0,0,0,1.06,9.68v8.19a1.07,1.07,0,0,0,1.07,1.07H13.69a1.08,1.08,0,0,0,1.08-1.07V9.68A1.09,1.09,0,0,0,13.69,8.6Z"/><path class="b" d="M7.91,16.23a.53.53,0,0,1-.53-.53V13.79l-.12-.08a1.22,1.22,0,1,1,1.31,0l-.13.08V15.7A.53.53,0,0,1,7.91,16.23Z"/></g></svg>